<?xml version="1.0" encoding="UTF-8"?>
<svg id="Camada_1" data-name="Camada 1" xmlns="http://www.w3.org/2000/svg" viewBox="0 0 401.53 151.02">
  <defs>
    <style>
      .cls-1 {
        fill: #c66c61;
      }

      .cls-1, .cls-2, .cls-3 {
        stroke-width: 0px;
      }

      .cls-2 {
        fill: #fcfeff;
      }

      .cls-3 {
        fill: #8c8c8c;
      }
    </style>
  </defs>
  <g>
    <path class="cls-2" d="M86.69,150.88s-28.18-15.41-38.34-18.65C18.22,122.63,0,104.54,0,68.39,0,47.11,5.78,30.37,17.56,18.18,29.34,5.99,45.87,0,66.94,0c40.7,0,63.43,23.35,63.43,64.88,0,28.31-9.71,48.14-29.13,59.5,4.13,1.03,38.13-.31,38.13-.31l-2.85,26.95M65.08,104.34c17.56,0,27.69-13.64,27.69-37.81s-9.92-37.19-27.27-37.19-27.48,13.43-27.48,38.02,9.71,36.98,27.07,36.98Z"/>
    <path class="cls-3" d="M184.22,110.08c-6.01,2.13-12.39,3.25-19.15,3.25-19.9,0-29.92-9.64-29.92-28.79,0-20.4,11.52-31.05,32.05-31.05,5.88,0,11.52.88,16.9,2.75v22.41h-15.77v-8.76h-.25c-7.39,0-11.14,4.13-11.14,12.52,0,9.39,3.88,14.02,11.64,14.02,3.38,0,7.39-.75,12.14-2.13l3.51,15.77Z"/>
    <path class="cls-3" d="M227.41,97.69v14.52h-40.68v-14.52h9.26v-55.71h-9.26v-14.52h31.42v70.23h9.26Z"/>
    <path class="cls-3" d="M293.88,97.69v14.77h-26.54l-1.5-4.26c-5.76,3.76-11.02,5.63-15.9,5.63-11.02,0-18.9-6.64-18.9-17.27s10.64-17.27,31.92-18.28v-3.38c0-3.5-2.25-5.26-6.63-5.26-2.13,0-4.38.13-6.63.38v7.39h-15.77v-19.53l.38.13v-.13c7.89-2.88,16.27-4.38,25.29-4.38,16.65,0,25.04,7.26,25.04,21.91v22.28h9.26ZM262.96,90.3c-6.63.38-9.51,1-10.26,4.38,0,2,1.13,3,3.38,3,2.13,0,4.38-.75,6.88-2.25v-5.13Z"/>
    <path class="cls-3" d="M329.68,69.65v.13c-1.88-.38-3.63-.63-5.01-.63-3.63,0-5.38.75-5.38,2.25,0,2.13,4.26,3.38,9.64,4.76,7.76,1.38,17.9,5.76,17.78,18.4,0,13.02-10.14,18.9-25.04,18.9-9.51,0-17.27-1.5-23.16-4.38l.13-.38v-16.9h14.9v4.63c2.63.75,4.76,1.13,6.38,1.13,3.88,0,5.76-.75,5.76-2.13,0-2.88-4.26-4.26-9.76-5.63-7.64-1.88-17.78-5.38-17.65-17.53,0-12.52,10.64-18.78,27.16-18.78,6.89,0,13.27,1.13,19.15,3.38v17.27h-14.9v-4.51Z"/>
    <path class="cls-3" d="M384.51,69.65v.13c-1.88-.38-3.63-.63-5.01-.63-3.63,0-5.38.75-5.38,2.25,0,2.13,4.26,3.38,9.64,4.76,7.76,1.38,17.9,5.76,17.78,18.4,0,13.02-10.14,18.9-25.04,18.9-9.51,0-17.27-1.5-23.16-4.38l.13-.38v-16.9h14.9v4.63c2.63.75,4.76,1.13,6.38,1.13,3.88,0,5.76-.75,5.76-2.13,0-2.88-4.26-4.26-9.76-5.63-7.64-1.88-17.78-5.38-17.65-17.53,0-12.52,10.64-18.78,27.16-18.78,6.89,0,13.27,1.13,19.15,3.38v17.27h-14.9v-4.51Z"/>
  </g>
  <path class="cls-1" d="M149.65,140.44l2.26-.19c.11.88.36,1.6.75,2.17.39.57,1,1.02,1.82,1.37.82.35,1.75.52,2.78.52.91,0,1.72-.13,2.42-.4.7-.26,1.22-.63,1.56-1.09.34-.46.51-.96.51-1.51s-.16-1.04-.49-1.45c-.33-.41-.87-.76-1.63-1.04-.49-.18-1.56-.47-3.22-.86s-2.82-.75-3.49-1.1c-.86-.44-1.51-.99-1.93-1.64-.42-.65-.64-1.38-.64-2.19,0-.89.26-1.72.78-2.49.52-.77,1.27-1.36,2.27-1.76,1-.4,2.1-.6,3.32-.6,1.34,0,2.52.21,3.55.63,1.02.42,1.81,1.04,2.36,1.86.55.82.85,1.74.89,2.78l-2.29.17c-.12-1.11-.54-1.95-1.25-2.52-.71-.57-1.76-.85-3.15-.85s-2.5.26-3.16.78c-.66.52-.99,1.14-.99,1.87,0,.63.23,1.15.7,1.56.46.41,1.66.83,3.61,1.26,1.94.43,3.28.8,4,1.12,1.05.47,1.83,1.07,2.33,1.8.5.72.75,1.56.75,2.5s-.28,1.82-.83,2.65c-.55.83-1.34,1.47-2.37,1.93-1.03.46-2.19.69-3.48.69-1.64,0-3.01-.23-4.11-.7s-1.97-1.16-2.6-2.1c-.63-.93-.96-1.99-.99-3.17Z"/>
  <path class="cls-1" d="M169.14,131.27v-2.49h2.22v2.49h-2.22ZM169.14,146.4v-12.76h2.22v12.76h-2.22Z"/>
  <path class="cls-1" d="M177.42,142.16l2.2-.34c.12.86.47,1.51,1.03,1.97.56.46,1.35.68,2.36.68s1.78-.2,2.27-.61c.49-.4.74-.88.74-1.42,0-.49-.22-.87-.65-1.15-.3-.19-1.06-.44-2.27-.73-1.63-.4-2.76-.75-3.39-1.04-.63-.29-1.11-.7-1.43-1.21s-.49-1.09-.49-1.71c0-.57.13-1.1.4-1.58.27-.48.63-.89,1.09-1.21.35-.25.82-.46,1.41-.63.6-.17,1.24-.26,1.92-.26,1.03,0,1.93.14,2.71.43.78.29,1.35.68,1.72,1.17.37.49.62,1.15.76,1.98l-2.17.29c-.1-.66-.38-1.17-.86-1.54-.47-.37-1.14-.55-2-.55-1.02,0-1.75.16-2.18.49-.44.33-.65.71-.65,1.15,0,.28.09.53.27.76.18.23.46.42.85.58.22.08.88.26,1.96.55,1.57.41,2.67.74,3.29,1,.62.26,1.11.64,1.46,1.14.35.5.53,1.11.53,1.85s-.22,1.4-.65,2.04-1.05,1.13-1.87,1.48-1.74.52-2.76.52c-1.7,0-3-.34-3.89-1.03-.89-.69-1.46-1.71-1.71-3.06Z"/>
  <path class="cls-1" d="M198.25,144.29l.32,1.91c-.62.13-1.18.19-1.68.19-.81,0-1.43-.12-1.88-.37-.44-.25-.76-.58-.94-.98-.18-.4-.27-1.26-.27-2.55v-7.34h-1.63v-1.68h1.63v-3.16l2.21-1.3v4.46h2.23v1.68h-2.23v7.46c0,.62.04,1.01.12,1.19.08.18.21.32.38.42.18.1.43.16.76.16.25,0,.57-.03.97-.08Z"/>
  <path class="cls-1" d="M212.55,141.86l2.29.28c-.36,1.3-1.03,2.32-2.01,3.04-.98.72-2.23,1.08-3.75,1.08-1.92,0-3.44-.57-4.56-1.72s-1.68-2.76-1.68-4.84.57-3.81,1.7-5,2.61-1.78,4.42-1.78,3.18.58,4.29,1.74c1.11,1.16,1.67,2.8,1.67,4.9,0,.13,0,.32-.01.58h-9.77c.08,1.4.49,2.48,1.22,3.22.73.75,1.64,1.12,2.74,1.12.81,0,1.51-.21,2.08-.62.58-.42,1.03-1.08,1.37-1.99ZM205.26,138.36h7.31c-.1-1.07-.38-1.88-.84-2.42-.71-.83-1.62-1.25-2.75-1.25-1.02,0-1.88.33-2.57,1s-1.08,1.55-1.15,2.67Z"/>
  <path class="cls-1" d="M221.02,146.39v-12.76h1.99v1.79c.41-.62.96-1.13,1.64-1.51.68-.38,1.46-.57,2.33-.57.97,0,1.77.2,2.39.59.62.39,1.06.94,1.31,1.65,1.04-1.49,2.38-2.23,4.05-2.23,1.3,0,2.3.35,3,1.05.7.7,1.05,1.78,1.05,3.24v8.76h-2.21v-8.04c0-.86-.07-1.49-.22-1.87-.14-.38-.41-.69-.78-.92-.38-.23-.82-.35-1.33-.35-.92,0-1.69.3-2.29.9s-.91,1.55-.91,2.87v7.41h-2.22v-8.29c0-.96-.18-1.68-.54-2.16-.36-.48-.95-.72-1.78-.72-.62,0-1.2.16-1.73.48-.53.32-.92.79-1.15,1.41-.24.62-.36,1.51-.36,2.67v6.62h-2.22Z"/>
  <path class="cls-1" d="M253.46,144.53c-.82.68-1.62,1.16-2.38,1.44-.76.28-1.58.42-2.45.42-1.44,0-2.55-.34-3.32-1.03-.77-.68-1.16-1.56-1.16-2.62,0-.62.15-1.2.44-1.71s.67-.93,1.15-1.24c.47-.31,1.01-.55,1.6-.71.44-.11,1.09-.22,1.97-.32,1.79-.21,3.11-.46,3.96-.75,0-.3.01-.48.01-.56,0-.88-.21-1.5-.63-1.86-.57-.49-1.41-.73-2.53-.73-1.04,0-1.82.18-2.31.54s-.87.99-1.1,1.89l-2.17-.29c.2-.91.52-1.64.97-2.19s1.11-.99,1.96-1.29c.86-.3,1.85-.45,2.97-.45s2.03.13,2.73.38c.7.26,1.21.58,1.54.97.33.39.56.88.69,1.47.07.37.11,1.03.11,2v2.88c0,2.01.05,3.28.14,3.81.09.53.28,1.04.56,1.53h-2.32c-.23-.45-.38-.97-.44-1.57ZM253.27,139.7c-.81.32-2.01.59-3.63.82-.91.13-1.56.27-1.94.43s-.67.39-.88.7c-.21.31-.31.65-.31,1.03,0,.58.22,1.06.67,1.44s1.1.58,1.97.58,1.62-.18,2.28-.55c.67-.36,1.16-.86,1.47-1.5.24-.49.36-1.21.36-2.16v-.79Z"/>
  <path class="cls-1" d="M271.67,151.02v-17.65h2.02v1.66c.48-.65,1.02-1.13,1.62-1.46.6-.32,1.33-.49,2.18-.49,1.12,0,2.11.28,2.96.84.86.56,1.5,1.35,1.94,2.37s.65,2.14.65,3.36c0,1.31-.24,2.48-.72,3.53-.48,1.04-1.18,1.85-2.1,2.4s-1.88.83-2.89.83c-.74,0-1.4-.15-1.99-.46-.59-.3-1.07-.69-1.45-1.15v6.21h-2.22ZM273.68,139.82c0,1.64.34,2.86,1.02,3.64.68.79,1.51,1.18,2.48,1.18s1.83-.41,2.53-1.22,1.05-2.07,1.05-3.78-.34-2.84-1.03-3.65c-.69-.81-1.51-1.21-2.46-1.21s-1.78.43-2.51,1.29c-.73.86-1.09,2.11-1.09,3.75Z"/>
  <path class="cls-1" d="M296.82,144.51c-.82.68-1.61,1.16-2.38,1.44s-1.58.42-2.45.42c-1.44,0-2.54-.34-3.32-1.03-.77-.68-1.16-1.56-1.16-2.62,0-.62.15-1.2.44-1.71s.67-.93,1.15-1.24,1-.55,1.6-.71c.44-.11,1.09-.22,1.97-.32,1.79-.21,3.11-.46,3.96-.75,0-.3.01-.48.01-.56,0-.88-.21-1.5-.63-1.86-.57-.49-1.41-.73-2.53-.73-1.04,0-1.82.18-2.31.54-.5.36-.87.99-1.1,1.89l-2.17-.29c.2-.91.52-1.64.97-2.19s1.11-.99,1.96-1.29c.85-.3,1.85-.45,2.97-.45s2.03.13,2.73.38c.7.26,1.21.58,1.54.97s.56.88.69,1.47c.07.37.11,1.03.11,2v2.88c0,2.01.05,3.28.14,3.81.09.53.28,1.04.56,1.53h-2.32c-.23-.45-.38-.97-.44-1.57ZM296.64,139.68c-.81.32-2.01.59-3.63.82-.91.13-1.56.27-1.94.43-.38.16-.67.39-.88.7-.21.31-.31.65-.31,1.03,0,.58.22,1.06.67,1.44s1.1.58,1.97.58,1.62-.18,2.28-.55,1.16-.86,1.47-1.5c.24-.49.36-1.21.36-2.16v-.79Z"/>
  <path class="cls-1" d="M305.33,146.4v-12.76h2v1.93c.51-.91.98-1.5,1.41-1.79.43-.29.91-.43,1.42-.43.75,0,1.51.23,2.28.7l-.76,2.01c-.54-.31-1.08-.47-1.63-.47-.49,0-.92.14-1.31.43s-.66.68-.83,1.18c-.25.77-.37,1.61-.37,2.52v6.68h-2.22Z"/>
  <path class="cls-1" d="M325.69,144.51c-.82.68-1.61,1.16-2.38,1.44s-1.58.42-2.45.42c-1.44,0-2.54-.34-3.32-1.03-.77-.68-1.16-1.56-1.16-2.62,0-.62.15-1.2.44-1.71s.67-.93,1.15-1.24,1-.55,1.6-.71c.44-.11,1.09-.22,1.97-.32,1.79-.21,3.11-.46,3.96-.75,0-.3.01-.48.01-.56,0-.88-.21-1.5-.63-1.86-.57-.49-1.41-.73-2.53-.73-1.04,0-1.82.18-2.31.54-.5.36-.87.99-1.1,1.89l-2.17-.29c.2-.91.52-1.64.97-2.19s1.11-.99,1.96-1.29c.85-.3,1.85-.45,2.97-.45s2.03.13,2.73.38c.7.26,1.21.58,1.54.97s.56.88.69,1.47c.07.37.11,1.03.11,2v2.88c0,2.01.05,3.28.14,3.81.09.53.28,1.04.56,1.53h-2.32c-.23-.45-.38-.97-.44-1.57ZM325.06,139.54c-.81.32-2.01.59-3.63.82-.91.13-1.56.27-1.94.43-.38.16-.67.39-.88.7-.21.31-.31.65-.31,1.03,0,.58.22,1.06.67,1.44s1.1.58,1.97.58,1.62-.18,2.28-.55,1.16-.86,1.47-1.5c.24-.49.36-1.21.36-2.16v-.79Z"/>
  <path class="cls-1" d="M355.64,139.77l2.39.59c-.5,1.92-1.4,3.37-2.71,4.38-1.3,1-2.9,1.51-4.78,1.51s-3.53-.39-4.76-1.16c-1.22-.77-2.15-1.89-2.79-3.36-.64-1.47-.96-3.04-.96-4.72,0-1.83.36-3.43,1.08-4.8.72-1.37,1.74-2.4,3.07-3.11s2.79-1.06,4.38-1.06c1.81,0,3.33.45,4.56,1.35,1.23.9,2.09,2.16,2.58,3.79l-2.36.54c-.42-1.28-1.03-2.21-1.83-2.8s-1.8-.88-3.01-.88c-1.39,0-2.55.32-3.49.97-.93.65-1.59,1.52-1.97,2.61-.38,1.09-.57,2.22-.57,3.38,0,1.5.22,2.81.67,3.92.45,1.12,1.15,1.95,2.09,2.5s1.97.83,3.07.83c1.34,0,2.48-.38,3.41-1.13.93-.75,1.56-1.87,1.89-3.35Z"/>
  <path class="cls-1" d="M363.1,146.38v-17.61h12.2v2.08h-9.81v5.46h8.49v2.08h-8.49v8h-2.39Z"/>
  <path class="cls-1" d="M390.86,139.77l2.39.59c-.5,1.92-1.4,3.37-2.71,4.38-1.3,1-2.9,1.51-4.78,1.51s-3.53-.39-4.76-1.16c-1.22-.77-2.15-1.89-2.79-3.36-.64-1.47-.96-3.04-.96-4.72,0-1.83.36-3.43,1.08-4.8.72-1.37,1.74-2.4,3.07-3.11s2.79-1.06,4.38-1.06c1.81,0,3.33.45,4.56,1.35,1.23.9,2.09,2.16,2.58,3.79l-2.36.54c-.42-1.28-1.03-2.21-1.83-2.8s-1.8-.88-3.01-.88c-1.39,0-2.55.32-3.49.97-.93.65-1.59,1.52-1.97,2.61-.38,1.09-.57,2.22-.57,3.38,0,1.5.22,2.81.67,3.92.45,1.12,1.15,1.95,2.09,2.5s1.97.83,3.07.83c1.34,0,2.48-.38,3.41-1.13.93-.75,1.56-1.87,1.89-3.35Z"/>
</svg>